<svg preserveAspectRatio="none" width="100%" height="100%" overflow="visible" style="display: block;" viewBox="0 0 47.3574 2.2453" fill="none" xmlns="http://www.w3.org/2000/svg">
<path id="Line 4" d="M0 1.12265L1.12265 2.2453L2.2453 1.12265L1.12265 0L0 1.12265ZM47.3574 1.12265L46.2348 0L45.1121 1.12265L46.2348 2.2453L47.3574 1.12265ZM1.12265 1.12265V1.3171H1.92822V1.12265V0.928202H1.12265V1.12265ZM3.53937 1.12265V1.3171H5.15052V1.12265V0.928202H3.53937V1.12265ZM6.76167 1.12265V1.3171H8.37281V1.12265V0.928202H6.76167V1.12265ZM9.98396 1.12265V1.3171H11.5951V1.12265V0.928202H9.98396V1.12265ZM13.2063 1.12265V1.3171H14.8174V1.12265V0.928202H13.2063V1.12265ZM16.4286 1.12265V1.3171H18.0397V1.12265V0.928202H16.4286V1.12265ZM19.6508 1.12265V1.3171H21.262V1.12265V0.928202H19.6508V1.12265ZM22.8731 1.12265V1.3171H24.4843V1.12265V0.928202H22.8731V1.12265ZM26.0954 1.12265V1.3171H27.7066V1.12265V0.928202H26.0954V1.12265ZM29.3177 1.12265V1.3171H30.9289V1.12265V0.928202H29.3177V1.12265ZM32.54 1.12265V1.3171H34.1512V1.12265V0.928202H32.54V1.12265ZM35.7623 1.12265V1.3171H37.3735V1.12265V0.928202H35.7623V1.12265ZM38.9846 1.12265V1.3171H40.5958V1.12265V0.928202H38.9846V1.12265ZM42.2069 1.12265V1.3171H43.8181V1.12265V0.928202H42.2069V1.12265ZM45.4292 1.12265V1.3171H46.2348V1.12265V0.928202H45.4292V1.12265Z" fill="url(#paint0_linear_0_4)"/>
<defs>
<linearGradient id="paint0_linear_0_4" x1="1.12265" y1="1.62265" x2="46.2348" y2="1.62265" gradientUnits="userSpaceOnUse">
<stop stop-color="white"/>
<stop offset="1" stop-color="#949599"/>
</linearGradient>
</defs>
</svg>
