<svg width="18" height="18" viewBox="0 0 17.5 17.5" fill="none" xmlns="http://www.w3.org/2000/svg">
<path d="M12.75 0.75H2.75C1.64543 0.75 0.75 1.64543 0.75 2.75V10.75M16.75 9.75V12.75M16.75 1.75V5.75M0.75 10.75V14.75C0.75 15.8546 1.64543 16.75 2.75 16.75H15.75M0.75 10.75L3.83579 7.66421C4.61684 6.88316 5.88317 6.88317 6.66421 7.66421L9.75 10.75M15.75 16.75L9.75 10.75M15.75 16.75C16.3023 16.75 16.75 16.3023 16.75 15.75V12.75M9.75 10.75L10.7717 9.52394C11.5516 8.58811 12.9798 8.56091 13.7947 9.46638L16.75 12.75" stroke="currentColor" stroke-width="1.5" stroke-linecap="round"/>
</svg>
