<svg width="20" height="20" viewBox="0 0 20 20" fill="none" xmlns="http://www.w3.org/2000/svg">
<path d="M9.335 16.5V10.665H3.5C3.41267 10.665 3.3262 10.6478 3.24552 10.6144C3.16483 10.581 3.09152 10.532 3.02977 10.4702C2.96802 10.4085 2.91904 10.3352 2.88562 10.2545C2.8522 10.1738 2.835 10.0873 2.835 10C2.835 9.91267 2.8522 9.8262 2.88562 9.74552C2.91904 9.66483 2.96802 9.59152 3.02977 9.52977C3.09152 9.46802 3.16483 9.41904 3.24552 9.38562C3.3262 9.3522 3.41267 9.335 3.5 9.335H9.335V3.5C9.335 3.32363 9.40506 3.15449 9.52977 3.02977C9.65449 2.90506 9.82363 2.835 10 2.835C10.1764 2.835 10.3455 2.90506 10.4702 3.02977C10.5949 3.15449 10.665 3.32363 10.665 3.5V9.335H16.5L16.634 9.349C16.7836 9.38019 16.9179 9.46194 17.0143 9.5805C17.1106 9.69906 17.1633 9.8472 17.1633 10C17.1633 10.1528 17.1106 10.3009 17.0143 10.4195C16.9179 10.5381 16.7836 10.6198 16.634 10.651L16.5 10.665H10.665V16.5C10.665 16.5873 10.6478 16.6738 10.6144 16.7545C10.581 16.8352 10.532 16.9085 10.4702 16.9702C10.4085 17.032 10.3352 17.081 10.2545 17.1144C10.1738 17.1478 10.0873 17.165 10 17.165C9.91267 17.165 9.8262 17.1478 9.74552 17.1144C9.66483 17.081 9.59152 17.032 9.52977 16.9702C9.46802 16.9085 9.41904 16.8352 9.38562 16.7545C9.3522 16.6738 9.335 16.5873 9.335 16.5Z" fill="currentColor"/>
</svg>
