<svg width="18" height="20" viewBox="0 0 17.088 19.1909" fill="none" xmlns="http://www.w3.org/2000/svg">
<path d="M8.544 0.75L16.338 5.25V13.095C16.338 13.4461 16.2456 13.7909 16.07 14.095C15.8945 14.399 15.642 14.6515 15.338 14.827L9.544 18.173C9.23996 18.3485 8.89507 18.4409 8.544 18.4409C8.19293 18.4409 7.84804 18.3485 7.544 18.173L1.75 14.827C1.44597 14.6515 1.1935 14.399 1.01796 14.095C0.842426 13.7909 0.750009 13.4461 0.75 13.095V5.25L8.544 0.75Z" stroke="currentColor" stroke-width="1.5" stroke-linecap="round" stroke-linejoin="round"/>
<path d="M8.544 4.75V9.75M8.544 9.75L4.214 12.25M8.544 9.75L12.874 12.25" stroke="currentColor" stroke-width="1.5" stroke-linecap="round" stroke-linejoin="round"/>
</svg>
